<?xml version="1.0" encoding="utf-8"?>
<!-- Generator: Adobe Illustrator 20.0.0, SVG Export Plug-In . SVG Version: 6.00 Build 0)  -->
<svg version="1.1" id="Layer_1" xmlns="http://www.w3.org/2000/svg" xmlns:xlink="http://www.w3.org/1999/xlink" x="0px" y="0px"
	 viewBox="0 0 2000 1755.2" style="enable-background:new 0 0 2000 1755.2;" xml:space="preserve">
<style type="text/css">
	.st0{fill:#333333;}
	.st1{fill:none;stroke:#000000;stroke-miterlimit:10;}
	.st2{fill:none;}
	.st3{fill:#BEC3C7;}
	.st4{fill:#8D44AD;}
</style>
<polygon class="st0" points="998.8,1677.2 200.7,1286.3 200.7,1097.2 998.8,1488.2 "/>
<polygon class="st0" points="1792.8,682.2 994.8,291.2 994.8,102.2 1792.8,493.1 "/>
<rect x="198.8" y="495" class="st0" width="195" height="789.1"/>
<rect x="1599.9" y="493" class="st0" width="195" height="789.1"/>
<line class="st1" x1="1601.8" y1="1416.4" x2="802.6" y2="1013.2"/>
<line class="st1" x1="1790.9" y1="1511.4" x2="991.6" y2="1108.2"/>
<line class="st1" x1="990.8" y1="1349.4" x2="191.5" y2="946.2"/>
<line class="st2" x1="-2.3" y1="601.1" x2="-2.3" y2="853.1"/>
<line class="st1" x1="1802.1" y1="809.3" x2="1002.8" y2="406"/>
<line class="st1" x1="1991.1" y1="904.3" x2="1191.8" y2="501.1"/>
<line class="st1" x1="1191" y1="742.3" x2="391.8" y2="339"/>
<line class="st1" x1="395.6" y1="589.3" x2="996.8" y2="285"/>
<line class="st1" x1="996.8" y1="285" x2="1598.1" y2="587.5"/>
<polygon class="st3" points="1292,336.7 275.6,810.6 275.6,779.4 1292,305.5 "/>
<polygon class="st3" points="1713.5,980.7 697.1,1454.7 697.1,1423.4 1713.5,949.5 "/>
<polygon class="st4" points="1791.9,1742.4 -8.3,860.6 -8.3,614.6 1791.9,1496.4 "/>
<polygon class="st0" points="995.8,1677.2 1793.9,1286.3 1793.9,1097.2 995.8,1488.2 "/>
<g id="XMLID_1_">
	<g>
		<polygon class="st4" points="1994.3,892.9 1994.9,1138.4 192.5,258.5 191.9,13 		"/>
	</g>
	<g>
	</g>
</g>
<polygon class="st0" points="198.7,682.2 996.8,291.2 996.8,102.2 198.7,493.1 "/>
<polygon class="st0" points="1505.3,1002.1 1218.5,1116.2 485.9,781.8 783.6,654 "/>
</svg>
