<?xml version="1.0" ?><!DOCTYPE svg  PUBLIC '-//W3C//DTD SVG 1.1//EN'  'http://www.w3.org/Graphics/SVG/1.1/DTD/svg11.dtd'><svg enable-background="new 0 0 256 256" height="256px" id="Layer_1" version="1.1" viewBox="0 0 256 256" width="256px" xml:space="preserve" xmlns="http://www.w3.org/2000/svg" xmlns:xlink="http://www.w3.org/1999/xlink"><g><path d="M243.481,128c0,3.996-0.195,7.932-0.591,11.822c-0.457,4.467-1.172,8.873-2.127,13.174   c-9.619,43.64-43.944,78.011-87.556,87.72c-2.522,0.563-5.06,1.034-7.627,1.429h-0.015c-5.729,0.882-11.596,1.337-17.566,1.337   c-63.774,0-115.481-51.709-115.481-115.481C12.519,64.226,64.226,12.519,128,12.519S243.481,64.226,243.481,128z" fill="#5B3CA8"/><defs><filter filterUnits="userSpaceOnUse" height="161.34" id="Adobe_OpacityMaskFilter" width="158.349" x="82.415" y="79.379"><feFlood result="back" style="flood-color:white;flood-opacity:1"/><feBlend in="SourceGraphic" in2="back" mode="normal"/></filter></defs><mask height="161.34" id="SVGID_1_" maskUnits="userSpaceOnUse" width="158.349" x="82.415" y="79.379"><g filter="url(#Adobe_OpacityMaskFilter)"><defs><filter filterUnits="userSpaceOnUse" height="161.34" id="Adobe_OpacityMaskFilter_1_" width="158.349" x="82.415" y="79.379"><feFlood result="back" style="flood-color:white;flood-opacity:1"/><feBlend in="SourceGraphic" in2="back" mode="normal"/></filter></defs><mask height="161.34" id="SVGID_1_" maskUnits="userSpaceOnUse" width="158.349" x="82.415" y="79.379"/><linearGradient gradientUnits="userSpaceOnUse" id="SVGID_2_" x1="220.4355" x2="74.7792" y1="198.9004" y2="114.8057"><stop offset="0" style="stop-color:#FFFFFF"/><stop offset="1" style="stop-color:#B2B2B2"/></linearGradient><path d="M240.764,152.999c-9.619,43.64-43.944,78.011-87.556,87.72l-62.603-62.541     l-0.016-0.017l-0.304-0.303l-0.334-0.335l4.726-42.697l-12.263-10.607v-22.64l22.186-4.559l0.091-0.266l0.03-0.326h0.015     l0.472,0.622v-0.015l3.571-9.3l0.105-0.258l14.162-7.811l0.517-0.289l13.387,4.104l6.396,11.313l0.121,0.114h0.048l42.605,3.548     l0.243,0.285l0.306,0.323L240.764,152.999z" fill="url(#SVGID_2_)" mask="url(#SVGID_1_)"/></g></mask><path d="M240.764,152.999c-9.619,43.64-43.944,78.011-87.556,87.72l-62.603-62.541l-0.016-0.017l-0.304-0.303   l-0.334-0.335l4.726-42.697l-12.263-10.607v-22.64l22.186-4.559l0.091-0.266l0.03-0.326h0.015l0.472,0.622v-0.015l3.571-9.3   l0.105-0.258l14.162-7.811l0.517-0.289l13.387,4.104l6.396,11.313l0.121,0.114h0.048l42.605,3.548l0.243,0.285l0.306,0.323   L240.764,152.999z" fill="#4F3493"/><g><polygon fill="#FFEA4B" points="187.412,97.948 187.171,98.365 187.079,98.514 186.836,98.868 186.67,99.076 157.722,130.962     167.735,173.95 167.69,173.92 127.56,155.986 90.605,178.481 90.59,178.481 89.83,178.809 89.952,177.604 94.678,134.866     82.415,124.219 82.415,124.204 61.478,106.001 61.325,105.863 61.507,105.675 61.583,105.546 61.598,105.546 67.479,104.46     82.415,101.553 82.962,101.171 104.691,96.429 104.722,96.429 105.208,97.051 105.208,97.036 108.779,87.736 109.021,87.479     121.922,56.77 121.922,56.754 121.861,56.587 121.868,56.419 137.075,83.3 143.533,94.726 186.13,98.092 187.396,97.948   "/><polygon fill="#F8D417" points="167.741,173.999 127.564,155.842 125.37,117.859   "/><polygon fill="#F8D417" points="125.371,117.854 90.286,177.858 89.83,178.647 89.952,177.523 94.677,134.826   "/><polygon fill="#F2A81D" points="125.371,117.854 94.678,134.826 82.415,124.219 82.415,124.204 61.325,105.971 61.477,106.001     82.415,109.891 111.271,115.238 111.681,115.315 125.265,117.838   "/><polygon fill="#F2A81D" points="187.396,98.465 186.501,98.737 125.371,117.854 123.047,79.668 121.633,56.419 136.95,83.3     143.468,94.726 186.121,98.357   "/><polygon fill="#F8D417" points="187.396,98.465 186.501,98.737 125.371,117.854 143.468,94.726 186.121,98.357   "/><polygon fill="#F8D417" points="125.296,117.868 111.681,115.315 82.415,109.633 61.598,105.546 61.583,105.546 61.416,105.697     82.415,101.489 104.6,96.975 104.722,97.12 125.265,117.826   "/></g><path d="M128,12.519C64.226,12.519,12.519,64.226,12.519,128c0,63.772,51.707,115.481,115.481,115.481   c5.971,0,11.838-0.455,17.566-1.337h0.015c51.604-7.887,91.974-49.931,97.31-102.322c0.396-3.891,0.591-7.826,0.591-11.822   C243.481,64.226,191.774,12.519,128,12.519z M229.29,138.439c-4.665,45.828-39.552,82.736-84.956,90.06l-0.849,0.122   c-5.077,0.791-10.289,1.186-15.485,1.186c-56.129,0-101.807-45.676-101.807-101.807C26.193,71.87,71.871,26.193,128,26.193   c56.132,0,101.807,45.677,101.807,101.807C229.807,131.51,229.625,135.021,229.29,138.439z" fill="#FFCA10"/></g></svg>